<?xml version="1.0" encoding="utf-8"?>
<!-- Generator: Adobe Illustrator 19.0.0, SVG Export Plug-In . SVG Version: 6.00 Build 0)  -->
<svg version="1.1" id="Layer_1" xmlns="http://www.w3.org/2000/svg" xmlns:xlink="http://www.w3.org/1999/xlink" x="0px" y="0px"
	 viewBox="0 0 1024 159.3" style="enable-background:new 0 0 1024 159.3;" xml:space="preserve">
<style type="text/css">
	.st0{fill:#231F20;}
	.st1{fill:#E5E5E4;}
	.st2{fill:#B2B2B2;}
</style>
<polygon id="down_arrow_1_" class="st0" points="512,144.3 0,81.4 512,159.3 1024,81.4 "/>
<polygon id="up_arrow_1_" class="st1" points="512,58.4 0,78.1 512,62.2 1024,78.1 "/>
<g id="shadow_1_">
	<path class="st2" d="M71.7,0l10.4,54.5L92.2,0.1l5.1,0l-14.8,80l-3.7,0L63.5,0L71.7,0z"/>
	<path class="st2" d="M310.9,1l0,6.7l-16.2-0.1l-0.1,26l13.4,0.1l0,6.7l-13.4-0.1l-0.1,31.3l16.2,0.1l0,8.1l-24.1-0.1l0.3-78.8
		L310.9,1z"/>
	<path class="st2" d="M502.9,1.8l12.1,0c2.1,0,3.9,0.6,5.5,1.6c1.6,1.1,2.9,2.6,3.9,4.5c1,1.9,1.8,4.2,2.3,6.8
		c0.5,2.6,0.8,5.5,0.7,8.6c0,2.2-0.2,4.3-0.6,6.3c-0.4,2-0.9,3.8-1.5,5.5c-0.7,1.7-1.4,3.2-2.3,4.5c-0.9,1.3-1.9,2.4-3,3.2
		l11.3,37.8l-8.6,0L512.1,45l-1.4,0l-0.1,35.7l-7.9,0L502.9,1.8z M510.7,38.1l1.7,0c1,0,1.9-0.3,2.7-1c0.8-0.7,1.5-1.6,2.1-2.8
		c0.6-1.2,1.1-2.7,1.4-4.5c0.4-1.8,0.5-3.8,0.5-6c0-2.1-0.1-4-0.4-5.7c-0.3-1.7-0.6-3.2-1.1-4.5c-0.5-1.3-1-2.3-1.7-3
		c-0.6-0.7-1.3-1.1-2.1-1.1l-3.2,0L510.7,38.1z"/>
	<path class="st2" d="M723.7,2.7l10.4,54.5l10.1-54.5l5.1,0l-14.8,80l-3.7,0L715.5,2.7L723.7,2.7z"/>
	<path class="st2" d="M962.9,3.7l0,6.7l-16.2-0.1l-0.1,26l13.4,0.1l0,6.7l-13.4-0.1l-0.1,31.3l16.2,0.1l0,8.1l-24.1-0.1l0.3-78.8
		L962.9,3.7z"/>
</g>
<g id="forground">
	<path class="st0" d="M67.5,2.3l10.4,54.5L88,2.4l5.1,0l-14.8,80l-3.7,0L59.3,2.2L67.5,2.3z"/>
	<path class="st0" d="M306.7,3.3l0,6.7l-16.2-0.1l-0.1,26l13.4,0.1l0,6.7l-13.4-0.1L290.2,74l16.2,0.1l0,8.1L282.3,82l0.3-78.8
		L306.7,3.3z"/>
	<path class="st0" d="M498.8,4.1l12.1,0c2.1,0,3.9,0.6,5.5,1.6c1.6,1.1,2.9,2.6,3.9,4.5c1,1.9,1.8,4.2,2.3,6.8
		c0.5,2.6,0.8,5.5,0.7,8.6c0,2.2-0.2,4.3-0.6,6.3c-0.4,2-0.9,3.8-1.5,5.5c-0.7,1.7-1.4,3.2-2.3,4.5c-0.9,1.3-1.9,2.4-3,3.2L527.2,83
		l-8.6,0l-10.7-35.7l-1.4,0l-0.1,35.7l-7.9,0L498.8,4.1z M506.6,40.4l1.7,0c1,0,1.9-0.3,2.7-1c0.8-0.7,1.5-1.6,2.1-2.8
		c0.6-1.2,1.1-2.7,1.4-4.5c0.4-1.8,0.5-3.8,0.5-6c0-2.1-0.1-4-0.4-5.7c-0.3-1.7-0.6-3.2-1.1-4.5c-0.5-1.3-1-2.3-1.7-3
		c-0.6-0.7-1.3-1.1-2.1-1.1l-3.2,0L506.6,40.4z"/>
	<path class="st0" d="M719.5,5L730,59.5L740.1,5l5.1,0l-14.8,80l-3.7,0L711.4,4.9L719.5,5z"/>
	<path class="st0" d="M958.7,5.9l0,6.7l-16.2-0.1l-0.1,26l13.4,0.1l0,6.7l-13.4-0.1l-0.1,31.3l16.2,0.1l0,8.1l-24.1-0.1l0.3-78.8
		L958.7,5.9z"/>
</g>
</svg>
