<?xml version="1.0" encoding="utf-8"?>
<!-- Generator: Adobe Illustrator 19.0.0, SVG Export Plug-In . SVG Version: 6.00 Build 0)  -->
<svg version="1.1" id="Layer_1" xmlns="http://www.w3.org/2000/svg" xmlns:xlink="http://www.w3.org/1999/xlink" x="0px" y="0px"
	 viewBox="0 0 1024 159.2" style="enable-background:new 0 0 1024 159.2;" xml:space="preserve">
<style type="text/css">
	.st0{fill:#FFFFFF;}
	.st1{fill:#262525;}
	.st2{fill:#4D4B4C;}
</style>
<polygon id="down_arrow" class="st0" points="512,144.2 0,81.3 512,159.2 1024,81.3 "/>
<polygon id="up_arrow" class="st1" points="512,58.2 0,77.9 512,62 1024,77.9 "/>
<g id="shadow">
	<path class="st2" d="M71.7-0.1l10.4,54.5L92.2,0l5.1,0L82.4,80l-3.7,0L63.5-0.1L71.7-0.1z"/>
	<path class="st2" d="M310.9,0.9l0,6.7l-16.2-0.1l-0.1,26l13.4,0.1l0,6.7l-13.4-0.1l-0.1,31.3l16.2,0.1l0,8.1l-24.1-0.1l0.3-78.8
		L310.9,0.9z"/>
	<path class="st2" d="M502.9,1.7l12.1,0c2.1,0,3.9,0.6,5.5,1.6c1.6,1.1,2.9,2.6,3.9,4.5c1,1.9,1.8,4.2,2.3,6.8
		c0.5,2.6,0.8,5.5,0.7,8.6c0,2.2-0.2,4.3-0.6,6.3c-0.4,2-0.9,3.8-1.5,5.5c-0.7,1.7-1.4,3.2-2.3,4.5c-0.9,1.3-1.9,2.4-3,3.2
		l11.3,37.8l-8.6,0l-10.7-35.7l-1.4,0l-0.1,35.7l-7.9,0L502.9,1.7z M510.7,38l1.7,0c1,0,1.9-0.3,2.7-1c0.8-0.7,1.5-1.6,2.1-2.8
		c0.6-1.2,1.1-2.7,1.4-4.5c0.4-1.8,0.5-3.8,0.5-6c0-2.1-0.1-4-0.4-5.7c-0.3-1.7-0.6-3.2-1.1-4.5c-0.5-1.3-1-2.3-1.7-3
		c-0.6-0.7-1.3-1.1-2.1-1.1l-3.2,0L510.7,38z"/>
	<path class="st2" d="M723.7,2.6l10.4,54.5l10.1-54.5l5.1,0l-14.8,80l-3.7,0L715.5,2.5L723.7,2.6z"/>
	<path class="st2" d="M962.9,3.6l0,6.7l-16.2-0.1l-0.1,26l13.4,0.1l0,6.7L946.6,43l-0.1,31.3l16.2,0.1l0,8.1l-24.1-0.1l0.3-78.8
		L962.9,3.6z"/>
</g>
<g id="foreground">
	<path class="st0" d="M67.5,2.1l10.4,54.5L88,2.2l5.1,0l-14.8,80l-3.7,0L59.3,2.1L67.5,2.1z"/>
	<path class="st0" d="M306.7,3.1l0,6.7l-16.2-0.1l-0.1,26l13.4,0.1l0,6.7l-13.4-0.1l-0.1,31.3l16.2,0.1l0,8.1l-24.1-0.1L282.6,3
		L306.7,3.1z"/>
	<path class="st0" d="M498.8,3.9l12.1,0c2.1,0,3.9,0.6,5.5,1.6c1.6,1.1,2.9,2.6,3.9,4.5c1,1.9,1.8,4.2,2.3,6.8
		c0.5,2.6,0.8,5.5,0.7,8.6c0,2.2-0.2,4.3-0.6,6.3c-0.4,2-0.9,3.8-1.5,5.5c-0.7,1.7-1.4,3.2-2.3,4.5c-0.9,1.3-1.9,2.4-3,3.2
		l11.3,37.8l-8.6,0l-10.7-35.7l-1.4,0l-0.1,35.7l-7.9,0L498.8,3.9z M506.6,40.2l1.7,0c1,0,1.9-0.3,2.7-1c0.8-0.7,1.5-1.6,2.1-2.8
		c0.6-1.2,1.1-2.7,1.4-4.5c0.4-1.8,0.5-3.8,0.5-6c0-2.1-0.1-4-0.4-5.7c-0.3-1.7-0.6-3.2-1.1-4.5c-0.5-1.3-1-2.3-1.7-3
		c-0.6-0.7-1.3-1.1-2.1-1.1l-3.2,0L506.6,40.2z"/>
	<path class="st0" d="M719.5,4.8L730,59.4l10.1-54.5l5.1,0l-14.8,80l-3.7,0L711.4,4.8L719.5,4.8z"/>
	<path class="st0" d="M958.7,5.8l0,6.7l-16.2-0.1l-0.1,26l13.4,0.1l0,6.7l-13.4-0.1l-0.1,31.3l16.2,0.1l0,8.1l-24.1-0.1l0.3-78.8
		L958.7,5.8z"/>
</g>
</svg>
